<?xml version="1.0" encoding="utf-8"?>
<svg xmlns="http://www.w3.org/2000/svg" width="800" height="800" viewBox="0 0 24 24" fill="none" stroke="#000000" stroke-width="2" stroke-linecap="round" stroke-linejoin="round">
  <path d="M4 19.5A2.5 2.5 0 016.5 17H20"/>
  <path d="M6.5 2H20v20H6.5A2.5 2.5 0 014 19.5v-15A2.5 2.5 0 016.5 2z"/>
  <svg  x="6" y="3.5" width="12" height="12"
    viewBox="0 0 500 500" fill="none" stroke="currentColor" stroke-width="24" stroke-linecap="round" stroke-linejoin="round">
    <circle cx="250" cy="250" r="185" stroke-dashoffset="-1" stroke-dasharray="3 2" pathLength="20"/>
    <circle cx="250" cy="65" r="25"/>
    <circle cx="435" cy="250" r="25"/>
    <circle cx="250" cy="435" r="25"/>
    <circle cx="65" cy="250" r="25"/>
    <circle cx="250" cy="250" r="125" stroke-dashoffset="-1" stroke-dasharray="6 2 8 0 6 2" pathLength="32"/>
    <circle cx="250" cy="250" r="85" stroke-dashoffset="5" stroke-dasharray="7 1" pathLength="8"/>
    <circle cx="250" cy="250" r="50"/>
    <line x1="90" y1="250" x2="125" y2="250"/>
    <line x1="340" y1="250" x2="410" y2="250"/>
    <line x1="250" y1="90" x2="250" y2="165"/>
    <line x1="250" y1="300" x2="250" y2="410"/>
    <line x1="189.896" y1="310.104" x2="119.186" y2="380.814"/>
    <line x1="310.104" y1="310.104" x2="380.814" y2="380.814"/>
    <line x1="214.645" y1="214.645" x2="119.186" y2="119.186"/>
    <line x1="285.355" y1="214.645" x2="380.814" y2="119.186"/>
    <circle cx="140.399" cy="140.399" r="30" fill="currentColor" stroke="none"/>
    <circle cx="359.601" cy="359.601" r="30" fill="currentColor" stroke="none"/>
  </svg>
</svg>